<?xml version="1.0" encoding="utf-8"?>
<!DOCTYPE svg PUBLIC "-//W3C//DTD SVG 1.1//EN" "http://www.w3.org/Graphics/SVG/1.1/DTD/svg11.dtd">
<svg xmlns="http://www.w3.org/2000/svg" xmlns:xlink="http://www.w3.org/1999/xlink" version="1.1" baseProfile="full" width="200" height="50" viewBox="0 0 200.00 50.00" enable-background="new 0 0 200.00 50.00" xml:space="preserve">
	<path fill="#000000" fill-opacity="1" fill-rule="evenodd" stroke-width="0.2" stroke-linejoin="round" d="M 37.7171,43.4852C 37.6887,44.2235 37.6603,44.9618 37.6318,45.7001L 36.9416,46.7349L 35.7765,47.6178L 34.5942,48.0286C 33.9032,48.0473 33.2123,48.0661 32.5214,48.0849C 24.2941,47.2647 16.0669,46.4445 7.83968,45.6243C 7.34756,45.3972 6.85544,45.1701 6.36332,44.943C 6.11097,44.5518 5.85859,44.1606 5.60621,43.7694C 5.49264,43.2521 5.37908,42.7347 5.26551,42.2174C 5.51789,41.7 5.77027,41.1826 6.02262,40.6653C 6.75217,40.2306 7.52662,39.9009 8.33179,39.6432C 7.23399,39.252 6.13618,38.8608 5.03838,38.4697C 4.60902,38.0757 4.2051,37.6658 3.97843,37.1447C 4.01629,35.252 4.05414,33.3592 4.092,31.4664L 4.10156,31.4432L 4.10395,31.4373L 4.10635,31.4316L 4.10775,31.4281L 4.11233,31.417L 4.12076,31.3967L 4.12207,31.3935L 4.12562,31.385L 4.12814,31.3789L 4.12836,31.3784L 4.13403,31.3651L 4.13431,31.3644L 4.13543,31.3618L 4.14034,31.3501L 4.14047,31.3497L 4.14535,31.3385L 4.14675,31.3352L 4.14738,31.3338L 4.15198,31.3231L 4.15943,31.3061L 4.16052,31.3036L 4.16858,31.2854L 4.17617,31.2686C 4.18766,31.2433 4.19955,31.2181 4.21198,31.1929L 4.21677,31.1832L 4.22427,31.1683L 4.22611,31.1647L 4.22804,31.161L 4.23206,31.1531L 4.23548,31.1465L 4.23803,31.1416L 4.24028,31.1373C 4.2456,31.1272 4.25108,31.1172 4.25659,31.1071L 4.2587,31.1032L 4.25939,31.102L 4.26558,31.0908C 4.33323,30.9702 4.41713,30.8512 4.53157,30.7352L 4.53238,30.7344C 4.59134,30.6748 4.65833,30.6158 4.73554,30.5579C 5.44218,30.4444 6.14883,30.3308 6.85544,30.2172C 6.99905,29.9911 7.1802,29.8004 7.3097,29.4601L 7.31228,29.4532L 7.31275,29.452L 7.31281,29.4518L 7.31319,29.4507L 7.31555,29.4439L 7.31571,29.4434L 7.31711,29.4392L 7.31826,29.4356L 7.31848,29.4349L 7.31979,29.4307L 7.32079,29.4273L 7.32103,29.4264L 7.32234,29.4222L 7.32324,29.4191L 7.32356,29.4179L 7.32477,29.4136L 7.32558,29.4107L 7.32595,29.4093L 7.32717,29.405L 7.32788,29.4023L 7.32832,29.4007L 7.33012,29.3939L 7.33062,29.392L 7.33183,29.3877L 7.33243,29.3855L 7.33364,29.3809L 7.33417,29.379L 7.33467,29.3771L 7.33529,29.3747L 7.33651,29.3704L 7.33697,29.3686L 7.33769,29.366L 7.33772,29.3659L 7.33977,29.3584L 7.34009,29.3573L 7.34139,29.353L 7.34174,29.3517L 7.34264,29.3486L 7.34395,29.3442L 7.34504,29.3406L 7.34547,29.3392L 7.35048,29.3239L 7.35207,29.3193L 7.35254,29.3181L 7.35263,29.3178L 7.35416,29.3138L 7.35712,29.3061L 7.35752,29.3051L 7.35923,29.3009L 7.35932,29.3008L 7.36113,29.2965L 7.36122,29.2963L 7.36399,29.29L 7.36624,29.2852L 7.3667,29.2842L 7.36705,29.2835L 7.36913,29.2792L 7.36963,29.2782L 7.37218,29.2733L 7.37445,29.2691L 7.37772,29.2633L 7.37869,29.2616L 7.38196,29.2562L 7.38529,29.2509L 7.38628,29.2494L 7.38912,29.2452L 7.38962,29.2445L 7.39208,29.241L 7.3951,29.2368L 7.39572,29.2361C 7.39942,29.2311 7.40331,29.2262 7.40748,29.2213L 7.40895,29.2196C 7.4125,29.2155 7.41626,29.2114 7.42022,29.2074L 7.4247,29.2028L 7.42482,29.2027L 7.42772,29.1999L 7.43199,29.1958L 7.43535,29.1928L 7.44095,29.1878L 7.44105,29.1878C 7.53447,29.1079 7.71752,29.0405 8.10466,29.0058C 9.96107,28.8404 11.8014,28.7406 13.6694,28.6652L 15.6681,28.9036L 15.7325,28.9112L 15.7569,28.9142L 16.1839,28.9651L 16.2484,28.9728L 16.2539,28.9734L 16.3773,28.9882L 16.4418,28.9959L 16.5062,29.0035L 16.5189,29.0051L 16.6352,29.019L 16.6997,29.0266L 16.8172,29.0407L 16.8286,29.042L 16.8931,29.0497L 16.9166,29.0525L 17.151,29.0805L 17.2155,29.0882L 17.2799,29.0958L 17.3444,29.1036L 17.4089,29.1112L 17.4266,29.1133L 17.4344,29.1143L 17.5969,29.1336L 17.6023,29.1343L 17.6667,29.142L 17.6726,29.1427L 17.6804,29.1436L 17.7312,29.1496L 17.7342,29.15L 17.7419,29.1509L 17.7649,29.1536L 17.7727,29.1546L 17.7956,29.1573C 17.783,28.9049 17.7704,28.6525 17.7578,28.4002C 17.9723,28.4002 18.1868,28.4002 18.4013,28.4002C 18.3887,28.6273 18.3761,28.8544 18.3635,29.0816C 18.6411,29.0816 18.9187,29.0816 19.1963,29.0816C 20.4329,29.2961 21.6695,29.5106 22.9061,29.7251C 23.1206,28.1604 23.3352,26.5957 23.5496,25.031L 23.556,25.004L 23.5569,25.0002L 23.5595,24.9896L 23.5607,24.985L 23.5678,24.9578L 23.5722,24.9415L 23.5727,24.94L 23.5758,24.9291L 23.5769,24.9253C 23.5816,24.909 23.5865,24.893 23.5917,24.8772L 23.5954,24.8662C 23.599,24.8554 23.6027,24.8448 23.6065,24.8344L 23.6072,24.8324L 23.6137,24.8151L 23.6146,24.8128L 23.6208,24.797L 23.6208,24.7969L 23.6274,24.7809L 23.6281,24.7792L 23.6307,24.7731L 23.6324,24.7693L 23.6409,24.7502L 23.6424,24.7468C 23.6488,24.7329 23.6555,24.7193 23.6624,24.7059L 23.6679,24.6954L 23.6695,24.6924L 23.6755,24.6814L 23.6777,24.6775L 23.6825,24.6691L 23.6887,24.6585C 23.6933,24.6508 23.698,24.6432 23.7028,24.6358L 23.7056,24.6314L 23.7143,24.6183L 23.7145,24.6181L 23.7233,24.6053L 23.728,24.5989L 23.7307,24.5952L 23.7369,24.5869L 23.7375,24.5862C 23.7415,24.5809 23.7456,24.5757 23.7498,24.5706L 23.7543,24.565C 23.764,24.5532 23.7741,24.5418 23.7845,24.5309L 23.7873,24.5279C 23.81,24.5043 23.8343,24.4828 23.8603,24.4634L 23.8618,24.4623C 23.8882,24.4427 23.9164,24.4254 23.9465,24.4103L 23.9473,24.41C 23.9734,24.3969 24.0011,24.3857 24.0302,24.3764L 24.032,24.3758L 24.041,24.3729L 24.0441,24.372L 24.0442,24.372C 24.1401,24.3435 24.252,24.3349 24.3825,24.3496C 24.6916,20.9616 25.6632,17.7944 27.1838,14.8101C 27.7772,13.163 29.0754,12.406 30.6286,11.9709C 31.4354,10.3572 31.3135,10.2561 33.0892,10.0025C 35.6129,8.28636 38.1366,6.57026 40.6603,4.85414C 40.8542,4.82098 40.9689,4.85862 41.1145,4.89199C 42.1366,4.09703 43.1587,3.30207 44.1808,2.50711C 44.4583,1.64975 44.282,1.60941 45.3165,1.75C 45.7886,1.34283 45.8557,1.56079 46.7171,2.16641C 48.0799,6.69644 49.4427,11.2265 50.8055,15.7565C 50.7317,15.9332 50.6772,16.1098 50.6919,16.2864C 51.0957,18.0026 51.4995,19.7187 51.9033,21.4348C 52.3702,21.8007 52.837,22.1667 53.304,22.5326C 53.3166,23.0125 53.1399,23.2396 52.774,23.214C 52.7109,23.479 52.6478,23.744 52.5847,24.0089C 52.9092,23.9784 53.1071,24.1255 53.304,24.2739C 53.1399,25.9144 52.6836,27.5348 51.9033,29.1194C 51.649,29.6359 51.1841,29.9209 50.3134,29.7251L 50.0333,29.699L 49.9969,29.6956L 49.3121,29.6316L 49.3007,29.6305L 49.2374,29.6246L 46.2629,29.3465C 44.9127,27.9459 43.5625,26.5452 42.2123,25.1446C 42.654,24.9049 43.0956,24.6651 43.5373,24.4254C 43.8653,24.6651 44.1934,24.9049 44.5215,25.1446C 45.5688,24.5768 46.6162,24.0089 47.6635,23.4411C 47.9916,23.5042 48.3197,23.5673 48.6477,23.6304C 48.6554,23.3117 48.7404,23.0151 49.102,22.7976C 47.9916,19.3149 46.8811,15.8322 45.7707,12.3495C 45.2595,12.3026 44.8206,12.1775 44.4837,11.441C 44.3113,11.0642 44.2784,10.6919 44.4079,10.2675C 41.2659,12.1729 38.124,14.0782 34.982,15.9836C 33.7251,16.8608 32.9559,17.6935 32.2564,18.5199C 31.9914,20.4001 31.7264,22.2802 31.4614,24.1604C 32.6728,24.2109 33.8842,24.2613 35.0955,24.3118C 35.4658,24.3451 35.6843,24.5305 35.7769,24.8418C 36.8371,28.4017 37.4303,32.0201 36.8747,35.782C 36.9252,36.11 36.9757,36.4381 37.0261,36.7662C 36.8495,36.905 36.6728,37.0438 36.4962,37.1826C 37.7706,37.3467 39.0451,37.5107 40.3196,37.6747C 40.7486,37.965 41.1776,38.2552 41.6066,38.5454C 41.859,38.987 42.1114,39.4287 42.3638,39.8703C 42.3259,40.312 42.288,40.7536 42.2502,41.1953C 41.96,41.6495 41.6697,42.1038 41.3795,42.5581C 40.9631,42.8357 40.5467,43.1133 40.1303,43.3909C 39.7896,43.4792 39.4489,43.5675 39.1082,43.6559C 38.6445,43.599 38.1808,43.5421 37.7171,43.4852 Z M 30.78,24.0847L 31.4046,19.9016C 30.6097,21.2581 30.1554,22.766 29.5308,24.1982M 44.1997,7.12545L 44.4458,3.79419L 44.2755,3.35884L 41.4174,5.38411L 41.3984,5.78159L 34.5656,10.646L 42.8559,7.39045L 44.1997,7.12545 Z "/>
	<path fill="none" fill-rule="evenodd" stroke-width="2.1" stroke-linejoin="miter" stroke="#000000" stroke-opacity="1" d="M 37.7171,43.4852C 37.6887,44.2235 37.6603,44.9618 37.6318,45.7001L 36.9416,46.7349L 35.7765,47.6178L 34.5942,48.0286C 33.9032,48.0473 33.2123,48.0661 32.5214,48.0849C 24.2941,47.2647 16.0669,46.4445 7.83968,45.6243C 7.34756,45.3972 6.85544,45.1701 6.36332,44.943C 6.11097,44.5518 5.85859,44.1606 5.60621,43.7694C 5.49264,43.2521 5.37908,42.7347 5.26551,42.2174C 5.51789,41.7 5.77027,41.1826 6.02262,40.6653C 6.75217,40.2306 7.52662,39.9009 8.33179,39.6432C 7.23399,39.252 6.13618,38.8608 5.03838,38.4697C 4.60902,38.0757 4.2051,37.6658 3.97843,37.1447C 4.01629,35.252 4.05414,33.3592 4.092,31.4664L 4.10156,31.4432L 4.10395,31.4373L 4.10635,31.4316L 4.10775,31.4281L 4.11233,31.417L 4.12076,31.3967L 4.12207,31.3935L 4.12562,31.385L 4.12814,31.3789L 4.12836,31.3784L 4.13403,31.3651L 4.13431,31.3644L 4.13543,31.3618L 4.14034,31.3501L 4.14047,31.3497L 4.14535,31.3385L 4.14675,31.3352L 4.14738,31.3338L 4.15198,31.3231L 4.15943,31.3061L 4.16052,31.3036L 4.16858,31.2854L 4.17617,31.2686C 4.18766,31.2433 4.19955,31.2181 4.21198,31.1929L 4.21677,31.1832L 4.22427,31.1683L 4.22611,31.1647L 4.22804,31.161L 4.23206,31.1531L 4.23548,31.1465L 4.23803,31.1416L 4.24028,31.1373C 4.2456,31.1272 4.25108,31.1172 4.25659,31.1071L 4.2587,31.1032L 4.25939,31.102L 4.26558,31.0908C 4.33323,30.9702 4.41713,30.8512 4.53157,30.7352L 4.53238,30.7344C 4.59134,30.6748 4.65833,30.6158 4.73554,30.5579C 5.44218,30.4444 6.14883,30.3308 6.85544,30.2172C 6.99905,29.9911 7.1802,29.8004 7.3097,29.4601L 7.31228,29.4532L 7.31275,29.452L 7.31281,29.4518L 7.31319,29.4507L 7.31555,29.4439L 7.31571,29.4434L 7.31711,29.4392L 7.31826,29.4356L 7.31848,29.4349L 7.31979,29.4307L 7.32079,29.4273L 7.32103,29.4264L 7.32234,29.4222L 7.32324,29.4191L 7.32356,29.4179L 7.32477,29.4136L 7.32558,29.4107L 7.32595,29.4093L 7.32717,29.405L 7.32788,29.4023L 7.32832,29.4007L 7.33012,29.3939L 7.33062,29.392L 7.33183,29.3877L 7.33243,29.3855L 7.33364,29.3809L 7.33417,29.379L 7.33467,29.3771L 7.33529,29.3747L 7.33651,29.3704L 7.33697,29.3686L 7.33769,29.366L 7.33772,29.3659L 7.33977,29.3584L 7.34009,29.3573L 7.34139,29.353L 7.34174,29.3517L 7.34264,29.3486L 7.34395,29.3442L 7.34504,29.3406L 7.34547,29.3392L 7.35048,29.3239L 7.35207,29.3193L 7.35254,29.3181L 7.35263,29.3178L 7.35416,29.3138L 7.35712,29.3061L 7.35752,29.3051L 7.35923,29.3009L 7.35932,29.3008L 7.36113,29.2965L 7.36122,29.2963L 7.36399,29.29L 7.36624,29.2852L 7.3667,29.2842L 7.36705,29.2835L 7.36913,29.2792L 7.36963,29.2782L 7.37218,29.2733L 7.37445,29.2691L 7.37772,29.2633L 7.37869,29.2616L 7.38196,29.2562L 7.38529,29.2509L 7.38628,29.2494L 7.38912,29.2452L 7.38962,29.2445L 7.39208,29.241L 7.3951,29.2368L 7.39572,29.2361C 7.39942,29.2311 7.40331,29.2262 7.40748,29.2213L 7.40895,29.2196C 7.4125,29.2155 7.41626,29.2114 7.42022,29.2074L 7.4247,29.2028L 7.42482,29.2027L 7.42772,29.1999L 7.43199,29.1958L 7.43535,29.1928L 7.44095,29.1878L 7.44105,29.1878C 7.53447,29.1079 7.71752,29.0405 8.10466,29.0058C 9.96107,28.8404 11.8014,28.7406 13.6694,28.6652L 15.6681,28.9036L 15.7325,28.9112L 15.7569,28.9142L 16.1839,28.9651L 16.2484,28.9728L 16.2539,28.9734L 16.3773,28.9882L 16.4418,28.9959L 16.5062,29.0035L 16.5189,29.0051L 16.6352,29.019L 16.6997,29.0266L 16.8172,29.0407L 16.8286,29.042L 16.8931,29.0497L 16.9166,29.0525L 17.151,29.0805L 17.2155,29.0882L 17.2799,29.0958L 17.3444,29.1036L 17.4089,29.1112L 17.4266,29.1133L 17.4344,29.1143L 17.5969,29.1336L 17.6023,29.1343L 17.6667,29.142L 17.6726,29.1427L 17.6804,29.1436L 17.7312,29.1496L 17.7342,29.15L 17.7419,29.1509L 17.7649,29.1536L 17.7727,29.1546L 17.7956,29.1573C 17.783,28.9049 17.7704,28.6525 17.7578,28.4002C 17.9723,28.4002 18.1868,28.4002 18.4013,28.4002C 18.3887,28.6273 18.3761,28.8544 18.3635,29.0816C 18.6411,29.0816 18.9187,29.0816 19.1963,29.0816C 20.4329,29.2961 21.6695,29.5106 22.9061,29.7251C 23.1206,28.1604 23.3352,26.5957 23.5496,25.031L 23.556,25.004L 23.5569,25.0002L 23.5595,24.9896L 23.5607,24.985L 23.5678,24.9578L 23.5722,24.9415L 23.5727,24.94L 23.5758,24.9291L 23.5769,24.9253C 23.5816,24.909 23.5865,24.893 23.5917,24.8772L 23.5954,24.8662C 23.599,24.8554 23.6027,24.8448 23.6065,24.8344L 23.6072,24.8324L 23.6137,24.8151L 23.6146,24.8128L 23.6208,24.797L 23.6208,24.7969L 23.6274,24.7809L 23.6281,24.7792L 23.6307,24.7731L 23.6324,24.7693L 23.6409,24.7502L 23.6424,24.7468C 23.6488,24.7329 23.6555,24.7193 23.6624,24.7059L 23.6679,24.6954L 23.6695,24.6924L 23.6755,24.6814L 23.6777,24.6775L 23.6825,24.6691L 23.6887,24.6585C 23.6933,24.6508 23.698,24.6432 23.7028,24.6358L 23.7056,24.6314L 23.7143,24.6183L 23.7145,24.6181L 23.7233,24.6053L 23.728,24.5989L 23.7307,24.5952L 23.7369,24.5869L 23.7375,24.5862C 23.7415,24.5809 23.7456,24.5757 23.7498,24.5706L 23.7543,24.565C 23.764,24.5532 23.7741,24.5418 23.7845,24.5309L 23.7873,24.5279C 23.81,24.5043 23.8343,24.4828 23.8603,24.4634L 23.8618,24.4623C 23.8882,24.4427 23.9164,24.4254 23.9465,24.4103L 23.9473,24.41C 23.9734,24.3969 24.0011,24.3857 24.0302,24.3764L 24.032,24.3758L 24.041,24.3729L 24.0441,24.372L 24.0442,24.372C 24.1401,24.3435 24.252,24.3349 24.3825,24.3496C 24.6916,20.9616 25.6632,17.7944 27.1838,14.8101C 27.7772,13.163 29.0754,12.406 30.6286,11.9709C 31.4354,10.3572 31.3135,10.2561 33.0892,10.0025C 35.6129,8.28636 38.1366,6.57026 40.6603,4.85414C 40.8542,4.82098 40.9689,4.85862 41.1145,4.89199C 42.1366,4.09703 43.1587,3.30207 44.1808,2.50711C 44.4583,1.64975 44.282,1.60941 45.3165,1.75C 45.7886,1.34283 45.8557,1.56079 46.7171,2.16641C 48.0799,6.69644 49.4427,11.2265 50.8055,15.7565C 50.7317,15.9332 50.6772,16.1098 50.6919,16.2864C 51.0957,18.0026 51.4995,19.7187 51.9033,21.4348C 52.3702,21.8007 52.837,22.1667 53.304,22.5326C 53.3166,23.0125 53.1399,23.2396 52.774,23.214C 52.7109,23.479 52.6478,23.744 52.5847,24.0089C 52.9092,23.9784 53.1071,24.1255 53.304,24.2739C 53.1399,25.9144 52.6836,27.5348 51.9033,29.1194C 51.649,29.6359 51.1841,29.9209 50.3134,29.7251L 50.0333,29.699L 49.9969,29.6956L 49.3121,29.6316L 49.3007,29.6305L 49.2374,29.6246L 46.2629,29.3465C 44.9127,27.9459 43.5625,26.5452 42.2123,25.1446C 42.654,24.9049 43.0956,24.6651 43.5373,24.4254C 43.8653,24.6651 44.1934,24.9049 44.5215,25.1446C 45.5688,24.5768 46.6162,24.0089 47.6635,23.4411C 47.9916,23.5042 48.3197,23.5673 48.6477,23.6304C 48.6554,23.3117 48.7404,23.0151 49.102,22.7976C 47.9916,19.3149 46.8811,15.8322 45.7707,12.3495C 45.2595,12.3026 44.8206,12.1775 44.4837,11.441C 44.3113,11.0642 44.2784,10.6919 44.4079,10.2675C 41.2659,12.1729 38.124,14.0782 34.982,15.9836C 33.7251,16.8608 32.9559,17.6935 32.2564,18.5199C 31.9914,20.4001 31.7264,22.2802 31.4614,24.1604C 32.6728,24.2109 33.8842,24.2613 35.0955,24.3118C 35.4658,24.3451 35.6843,24.5305 35.7769,24.8418C 36.8371,28.4017 37.4303,32.0201 36.8747,35.782C 36.9252,36.11 36.9757,36.4381 37.0261,36.7662C 36.8495,36.905 36.6728,37.0438 36.4962,37.1826C 37.7706,37.3467 39.0451,37.5107 40.3196,37.6747C 40.7486,37.965 41.1776,38.2552 41.6066,38.5454C 41.859,38.987 42.1114,39.4287 42.3638,39.8703C 42.3259,40.312 42.288,40.7536 42.2502,41.1953C 41.96,41.6495 41.6697,42.1038 41.3795,42.5581C 40.9631,42.8357 40.5467,43.1133 40.1303,43.3909C 39.7896,43.4792 39.4489,43.5675 39.1082,43.6559C 38.6445,43.599 38.1808,43.5421 37.7171,43.4852 Z M 30.78,24.0847L 31.4046,19.9016C 30.6097,21.2581 30.1554,22.766 29.5308,24.1982M 44.1997,7.12545L 44.4458,3.79419L 44.2755,3.35884L 41.4174,5.38411L 41.3984,5.78159L 34.5656,10.646L 42.8559,7.39045L 44.1997,7.12545 Z "/>
	<path fill="#000000" fill-opacity="1" fill-rule="evenodd" stroke-width="0.2" stroke-linejoin="miter" d="M 37.7171,43.4852C 37.6887,44.2235 37.6603,44.9618 37.6318,45.7001L 36.9416,46.7349L 35.7765,47.6178L 34.5942,48.0286C 33.9032,48.0473 33.2123,48.0661 32.5214,48.0849C 24.2941,47.2647 16.0669,46.4445 7.83968,45.6243C 7.34756,45.3972 6.85544,45.1701 6.36332,44.943C 6.11097,44.5518 5.85859,44.1606 5.60621,43.7694C 5.49264,43.2521 5.37908,42.7347 5.26551,42.2174C 5.51789,41.7 5.77027,41.1826 6.02262,40.6653C 6.75217,40.2306 7.52662,39.9009 8.33179,39.6432C 7.23399,39.252 6.13618,38.8608 5.03838,38.4697C 4.60902,38.0757 4.2051,37.6658 3.97843,37.1447C 4.01629,35.252 4.05414,33.3592 4.092,31.4664C 4.21889,31.1549 4.35384,30.844 4.73554,30.5579C 5.44218,30.4444 6.14883,30.3308 6.85544,30.2172C 6.99905,29.9911 7.1802,29.8004 7.3097,29.4601C 7.37551,29.2871 7.30777,29.0769 8.10466,29.0058C 9.96107,28.8404 11.8014,28.7406 13.6694,28.6652C 15.0448,28.8292 16.4202,28.9932 17.7956,29.1573C 17.783,28.9049 17.7704,28.6525 17.7578,28.4002C 17.9723,28.4002 18.1868,28.4002 18.4013,28.4002C 18.3887,28.6273 18.3761,28.8544 18.3635,29.0816C 18.6411,29.0816 18.9187,29.0816 19.1963,29.0816C 20.4329,29.2961 21.6695,29.5106 22.9061,29.7251C 23.1206,28.1604 23.3352,26.5957 23.5496,25.031C 23.6506,24.583 23.8777,24.2928 24.3825,24.3496C 24.6916,20.9616 25.6632,17.7944 27.1838,14.8101C 27.7772,13.163 29.0754,12.406 30.6286,11.9709C 31.4354,10.3572 31.3135,10.2561 33.0892,10.0025C 35.6129,8.28636 38.1366,6.57026 40.6603,4.85414C 40.8542,4.82098 40.9689,4.85862 41.1145,4.89199C 42.1366,4.09703 43.1587,3.30207 44.1808,2.50711C 44.4583,1.64975 44.282,1.60941 45.3165,1.75C 45.7886,1.34283 45.8557,1.56079 46.7171,2.16641C 48.0799,6.69644 49.4427,11.2265 50.8055,15.7565C 50.7317,15.9332 50.6772,16.1098 50.6919,16.2864C 51.0957,18.0026 51.4995,19.7187 51.9033,21.4348C 52.3702,21.8007 52.837,22.1667 53.304,22.5326C 53.3166,23.0125 53.1399,23.2396 52.774,23.214C 52.7109,23.479 52.6478,23.744 52.5847,24.0089C 52.9092,23.9784 53.1071,24.1255 53.304,24.2739C 53.1399,25.9144 52.6836,27.5348 51.9033,29.1194C 51.649,29.6359 51.1841,29.9209 50.3134,29.7251C 48.9632,29.5989 47.613,29.4728 46.2629,29.3465C 44.9127,27.9459 43.5625,26.5452 42.2123,25.1446C 42.654,24.9049 43.0956,24.6651 43.5373,24.4254C 43.8653,24.6651 44.1934,24.9049 44.5215,25.1446C 45.5688,24.5768 46.6162,24.0089 47.6635,23.4411C 47.9916,23.5042 48.3197,23.5673 48.6477,23.6304C 48.6554,23.3117 48.7404,23.0151 49.102,22.7976C 47.9916,19.3149 46.8811,15.8322 45.7707,12.3495C 45.2595,12.3026 44.8206,12.1775 44.4837,11.441C 44.3113,11.0642 44.2784,10.6919 44.4079,10.2675C 41.2659,12.1729 38.124,14.0782 34.982,15.9836C 33.7251,16.8608 32.9559,17.6935 32.2564,18.5199C 31.9914,20.4001 31.7264,22.2802 31.4614,24.1604C 32.6728,24.2109 33.8842,24.2613 35.0955,24.3118C 35.4658,24.3451 35.6843,24.5305 35.7769,24.8418C 36.8371,28.4017 37.4303,32.0201 36.8747,35.782C 36.9252,36.11 36.9757,36.4381 37.0261,36.7662C 36.8495,36.905 36.6728,37.0438 36.4962,37.1826C 37.7706,37.3467 39.0451,37.5107 40.3196,37.6747C 40.7486,37.965 41.1776,38.2552 41.6066,38.5454C 41.859,38.987 42.1114,39.4287 42.3638,39.8703C 42.3259,40.312 42.288,40.7536 42.2502,41.1953C 41.96,41.6495 41.6697,42.1038 41.3795,42.5581C 40.9631,42.8357 40.5467,43.1133 40.1303,43.3909C 39.7896,43.4792 39.4489,43.5675 39.1082,43.6559C 38.6445,43.599 38.1808,43.5421 37.7171,43.4852 Z M 30.78,24.0847L 31.4046,19.9016C 30.6097,21.2581 30.1554,22.766 29.5308,24.1982M 44.1997,7.12545L 44.4458,3.79419L 44.2755,3.35884L 41.4174,5.38411L 41.3984,5.78159L 34.5656,10.646L 42.8559,7.39045L 44.1997,7.12545 Z "/>
	<path fill="#424242" fill-opacity="1" fill-rule="evenodd" stroke-width="0.2" stroke-linejoin="miter" d="M 17.8736,40.4509L 24.4582,40.6274L 34.2816,42.3595L 35.4173,43.0257L 36.2785,44.784L 36.0082,46.3806L 34.6883,47.7463L 35.7674,47.45L 36.8375,46.5889L 37.4425,45.5958L 37.4994,43.4286L 36.8369,42.2552L 35.7953,41.3247L 34.9441,41.0438L 26.5305,39.5768L 23.3488,39.49L 18.8934,39.5675L 17.8736,40.4509 Z "/>
	<path fill="#F9D711" fill-opacity="1" fill-rule="evenodd" stroke-width="0.2" stroke-linejoin="miter" d="M 8.33179,39.6432C 7.23399,39.252 6.13618,38.8608 5.03838,38.4697C 4.60902,38.0757 4.2051,37.6658 3.97843,37.1447C 4.01629,35.252 4.05414,33.3592 4.092,31.4664C 4.21889,31.1549 4.35384,30.844 4.73554,30.5579C 5.44218,30.4444 6.14883,30.3308 6.85544,30.2172C 6.99905,29.9911 7.1802,29.8004 7.3097,29.4601C 7.37551,29.2871 7.30777,29.0769 8.10466,29.0058C 9.96107,28.8404 11.8014,28.7406 13.6694,28.6652C 15.0448,28.8292 16.4202,28.9932 17.7956,29.1573C 17.783,28.9049 17.7704,28.6525 17.7578,28.4002C 17.9723,28.4002 18.1868,28.4002 18.4013,28.4002C 18.3887,28.6273 18.3761,28.8544 18.3635,29.0816C 18.6411,29.0816 18.9187,29.0816 19.1963,29.0816C 20.4329,29.2961 21.6695,29.5106 22.9061,29.7251C 23.1206,28.1604 23.3352,26.5957 23.5496,25.031C 23.6506,24.583 23.8777,24.2928 24.3825,24.3496C 24.6916,20.9616 25.6632,17.7944 27.1838,14.8101C 27.7772,13.163 29.0754,12.406 30.6286,11.9709C 31.4354,10.3572 31.3135,10.2561 33.0892,10.0025C 35.6129,8.28636 38.1366,6.57026 40.6603,4.85414C 40.8542,4.82098 40.9689,4.85862 41.1145,4.89199C 42.1366,4.09703 43.1587,3.30207 44.1808,2.50711C 44.4583,1.64975 44.282,1.60941 45.3165,1.75C 45.7886,1.34283 45.8557,1.56079 46.7171,2.16641C 48.0799,6.69644 49.4427,11.2265 50.8055,15.7565C 50.7317,15.9332 50.6772,16.1098 50.6919,16.2864C 51.0957,18.0026 51.4995,19.7187 51.9033,21.4348C 52.3702,21.8007 52.837,22.1667 53.304,22.5326C 53.3166,23.0125 53.1399,23.2396 52.774,23.214C 52.7109,23.479 52.6478,23.744 52.5847,24.0089C 52.9092,23.9784 53.1071,24.1255 53.304,24.2739C 53.1399,25.9144 52.6836,27.5348 51.9033,29.1194C 51.649,29.6359 51.1841,29.9209 50.3134,29.7251C 48.9632,29.5989 47.613,29.4728 46.2629,29.3465C 44.9127,27.9459 43.5625,26.5452 42.2123,25.1446C 42.654,24.9049 43.0956,24.6651 43.5373,24.4254C 43.8653,24.6651 44.1934,24.9049 44.5215,25.1446C 45.5688,24.5768 46.6162,24.0089 47.6635,23.4411C 47.9916,23.5042 48.3197,23.5673 48.6477,23.6304C 48.6554,23.3117 48.7404,23.0151 49.102,22.7976C 47.9916,19.3149 46.8811,15.8322 45.7707,12.3495C 45.2595,12.3026 44.8206,12.1775 44.4837,11.441C 44.3113,11.0642 44.2784,10.6919 44.4079,10.2675C 41.2659,12.1729 38.124,14.0782 34.982,15.9836C 33.7251,16.8608 32.9559,17.6935 32.2564,18.5199C 31.9914,20.4001 31.7264,22.2802 31.4614,24.1604C 32.6728,24.2109 33.8842,24.2613 35.0955,24.3118C 35.4658,24.3451 35.6843,24.5305 35.7769,24.8418C 36.8371,28.4017 37.4303,32.0201 36.8747,35.782C 36.9252,36.11 36.9757,36.4381 37.0261,36.7662C 36.8495,36.905 36.6728,37.0438 36.4962,37.1826L 15.7893,40.8167L 13.8587,40.8546M 30.78,24.0847L 31.4046,19.9016C 30.6097,21.2581 30.1554,22.766 29.5308,24.1982M 44.1997,7.12545L 44.4458,3.79419L 44.2755,3.35884L 41.4174,5.38411L 41.3984,5.78159L 34.5656,10.646L 42.8559,7.39045L 44.1997,7.12545 Z "/>
	<path fill="none" fill-rule="evenodd" stroke-width="0.288005" stroke-linejoin="miter" stroke="#F9D711" stroke-opacity="1" d="M 8.33179,39.6432C 7.23399,39.252 6.13618,38.8608 5.03838,38.4697C 4.60902,38.0757 4.2051,37.6658 3.97843,37.1447C 4.01629,35.252 4.05414,33.3592 4.092,31.4664C 4.21889,31.1549 4.35384,30.844 4.73554,30.5579C 5.44218,30.4444 6.14883,30.3308 6.85544,30.2172C 6.99905,29.9911 7.1802,29.8004 7.3097,29.4601C 7.37551,29.2871 7.30777,29.0769 8.10466,29.0058C 9.96107,28.8404 11.8014,28.7406 13.6694,28.6652C 15.0448,28.8292 16.4202,28.9932 17.7956,29.1573C 17.783,28.9049 17.7704,28.6525 17.7578,28.4002C 17.9723,28.4002 18.1868,28.4002 18.4013,28.4002C 18.3887,28.6273 18.3761,28.8544 18.3635,29.0816C 18.6411,29.0816 18.9187,29.0816 19.1963,29.0816C 20.4329,29.2961 21.6695,29.5106 22.9061,29.7251C 23.1206,28.1604 23.3352,26.5957 23.5496,25.031C 23.6506,24.583 23.8777,24.2928 24.3825,24.3496C 24.6916,20.9616 25.6632,17.7944 27.1838,14.8101C 27.7772,13.163 29.0754,12.406 30.6286,11.9709C 31.4354,10.3572 31.3135,10.2561 33.0892,10.0025C 35.6129,8.28636 38.1366,6.57026 40.6603,4.85414C 40.8542,4.82098 40.9689,4.85862 41.1145,4.89199C 42.1366,4.09703 43.1587,3.30207 44.1808,2.50711C 44.4583,1.64975 44.282,1.60941 45.3165,1.75C 45.7886,1.34283 45.8557,1.56079 46.7171,2.16641C 48.0799,6.69644 49.4427,11.2265 50.8055,15.7565C 50.7317,15.9332 50.6772,16.1098 50.6919,16.2864C 51.0957,18.0026 51.4995,19.7187 51.9033,21.4348C 52.3702,21.8007 52.837,22.1667 53.304,22.5326C 53.3166,23.0125 53.1399,23.2396 52.774,23.214C 52.7109,23.479 52.6478,23.744 52.5847,24.0089C 52.9092,23.9784 53.1071,24.1255 53.304,24.2739C 53.1399,25.9144 52.6836,27.5348 51.9033,29.1194C 51.649,29.6359 51.1841,29.9209 50.3134,29.7251C 48.9632,29.5989 47.613,29.4728 46.2629,29.3465C 44.9127,27.9459 43.5625,26.5452 42.2123,25.1446C 42.654,24.9049 43.0956,24.6651 43.5373,24.4254C 43.8653,24.6651 44.1934,24.9049 44.5215,25.1446C 45.5688,24.5768 46.6162,24.0089 47.6635,23.4411C 47.9916,23.5042 48.3197,23.5673 48.6477,23.6304C 48.6554,23.3117 48.7404,23.0151 49.102,22.7976C 47.9916,19.3149 46.8811,15.8322 45.7707,12.3495C 45.2595,12.3026 44.8206,12.1775 44.4837,11.441C 44.3113,11.0642 44.2784,10.6919 44.4079,10.2675C 41.2659,12.1729 38.124,14.0782 34.982,15.9836C 33.7251,16.8608 32.9559,17.6935 32.2564,18.5199C 31.9914,20.4001 31.7264,22.2802 31.4614,24.1604C 32.6728,24.2109 33.8842,24.2613 35.0955,24.3118C 35.4658,24.3451 35.6843,24.5305 35.7769,24.8418C 36.8371,28.4017 37.4303,32.0201 36.8747,35.782C 36.9252,36.11 36.9757,36.4381 37.0261,36.7662C 36.8495,36.905 36.6728,37.0438 36.4962,37.1826L 15.7893,40.8167L 13.8587,40.8546M 30.78,24.0847L 31.4046,19.9016C 30.6097,21.2581 30.1554,22.766 29.5308,24.1982M 44.1997,7.12545L 44.4458,3.79419L 44.2755,3.35884L 41.4174,5.38411L 41.3984,5.78159L 34.5656,10.646L 42.8559,7.39045L 44.1997,7.12545 Z "/>
	<path fill="#F4AE1B" fill-opacity="1" fill-rule="evenodd" stroke-width="0.2" stroke-linejoin="miter" d="M 50.0333,29.699L 46.2629,29.3465L 42.3166,25.2528L 42.6666,25.2771L 43.3669,26.0153L 43.9537,26.0721L 43.4048,25.296L 43.7265,25.296L 44.3512,26.1099L 44.919,26.091L 44.4837,25.3907L 44.7865,25.3907L 45.2975,26.1099L 46.0357,26.1856L 45.4679,25.4096L 45.8843,25.4474L 46.4521,26.2235L 47.0389,26.2424L 46.5089,25.5232L 46.9443,25.561L 49.9916,29.5169L 50.0333,29.699 Z "/>
	<path fill="#F4AE1B" fill-opacity="1" fill-rule="evenodd" stroke-width="0.2" stroke-linejoin="miter" d="M 49.102,22.7976C 47.9916,19.3149 46.8811,15.8322 45.7707,12.3495L 45.0515,9.85104L 46.3007,9.01823L 50.9191,23.2518L 50.7298,23.7818L 49.2913,23.7061L 49.102,22.7976 Z "/>
	<path fill="#F4AE1B" fill-opacity="1" fill-rule="evenodd" stroke-width="0.2" stroke-linejoin="miter" d="M 51.3921,24.3452L 47.4538,24.0893L 47.9555,24.8097L 48.1165,25.824L 48.0596,26.3074L 50.4643,24.9424L 51.3921,24.3452 Z "/>
	<path fill="#F4AE1B" fill-opacity="1" fill-rule="evenodd" stroke-width="0.2" stroke-linejoin="miter" d="M 44.1808,2.50711C 44.4583,1.64975 44.282,1.60941 45.3165,1.75C 45.7886,1.34283 45.8557,1.56079 46.7171,2.16641L 46.0736,3.41563L 45.8086,6.78476C 41.0388,8.85419 36.269,10.9237 31.4993,12.993C 30.4734,13.4381 29.7868,14.521 29.3037,15.5293C 27.8891,18.4821 27.1301,21.4348 26.4267,24.3875C 26.3352,24.3876 26.2437,24.3876 26.1522,24.3877C 26.8243,21.3592 27.6545,18.3952 29.1144,15.3022C 29.606,14.2606 30.4022,13.2186 31.4614,12.7659L 45.5436,6.7469L 44.1997,7.12545L 44.4458,3.79419L 44.2755,3.35884L 45.0136,2.77209C 45.2163,2.60037 44.8516,1.94497 44.1808,2.50711 Z "/>
	<path fill="#F4AE1B" fill-opacity="1" fill-rule="evenodd" stroke-width="0.2" stroke-linejoin="miter" d="M 17.3035,29.0987C 17.4675,29.1182 17.6316,29.1378 17.7956,29.1573C 17.783,28.9049 17.7704,28.6525 17.7578,28.4002C 17.9723,28.4002 18.1868,28.4002 18.4013,28.4002C 18.3887,28.6273 18.3761,28.8544 18.3635,29.0816C 18.6411,29.0816 18.9187,29.0816 19.1963,29.0816C 20.4329,29.2961 21.6695,29.5106 22.9061,29.7251C 23.1206,28.1604 23.3352,26.5957 23.5496,25.031C 23.6245,24.6988 23.7687,24.4535 24.0441,24.372C 24.1569,24.3646 24.2696,24.3571 24.3825,24.3496C 25.8384,24.4916 27.0718,24.7818 28.2248,25.1257C 27.7547,27.2393 27.4645,29.3529 27.2973,31.4664C 27.2994,32.8265 27.3014,34.1866 27.3035,35.5467C 27.2447,34.3254 27.1858,33.1041 27.127,31.8829C 27.1396,31.4759 26.9945,31.1794 26.5024,31.1257C 23.2089,31.5169 19.9155,31.9081 16.6221,32.2993C 16.4976,32.1866 16.3731,32.074 16.2487,31.9614C 16.2343,31.8279 16.22,31.6945 16.2057,31.5611C 16.5857,30.918 16.9657,30.2748 17.3457,29.6317C 17.3317,29.454 17.3176,29.2764 17.3035,29.0987 Z "/>
	<path fill="#000000" fill-opacity="1" fill-rule="evenodd" stroke-width="0.2" stroke-linejoin="miter" d="M 35.6634,25.8828C 35.5989,25.6635 35.2845,25.5332 35.0577,25.561C 33.4116,25.7627 31.6219,25.8206 29.7011,25.9396C 29.5701,25.9477 29.3933,26.0362 29.3794,26.1667C 29.1486,28.3288 28.8595,30.5069 28.9819,32.6778C 29.0094,33.167 29.3313,33.8091 29.8147,33.8892C 32.0142,34.2537 34.3776,34.2762 36.6854,34.6274C 36.7588,31.7677 36.525,28.817 35.6634,25.8828 Z "/>
	<path fill="#FEFEFE" fill-opacity="1" fill-rule="evenodd" stroke-width="0.2" stroke-linejoin="miter" d="M 35.2848,26.602C 35.247,26.4597 35.1094,26.2833 34.963,26.2992C 34.0025,26.4034 33.0409,26.4658 32.1239,26.5074C 31.9359,26.5159 31.7536,26.7549 31.7643,26.9427C 31.8492,28.4412 31.7753,29.9532 31.8021,31.4475C 31.8052,31.6207 32.0674,31.7646 32.2374,31.7314C 33.4765,31.4897 34.7172,31.3823 35.9283,31.2582C 36.0833,31.2424 36.1957,31.0151 36.1744,30.8608C 35.9759,29.4242 35.657,28.0036 35.2848,26.602 Z "/>
	<path fill="#FEFEFE" fill-opacity="1" fill-rule="evenodd" stroke-width="0.2" stroke-linejoin="miter" d="M 36.0933,32.5734C 36.1064,32.4559 35.9546,32.3085 35.8377,32.3269C 34.5513,32.5298 33.2864,32.721 32.0414,32.8104C 31.9587,32.8163 31.8925,32.918 31.8804,33C 31.8542,33.1782 31.8465,33.3828 31.871,33.5877C 31.8808,33.6697 31.9588,33.7648 32.0414,33.7678C 33.3313,33.8152 34.5129,34.09 35.6483,34.2039C 35.8386,34.223 36.0888,34.044 36.1027,33.8532C 36.1329,33.4417 36.0461,32.9938 36.0933,32.5734 Z "/>
	<path fill="#FEFEFE" fill-opacity="1" fill-rule="evenodd" stroke-width="0.2" stroke-linejoin="miter" d="M 30.5929,26.9142C 30.595,26.7847 30.447,26.6252 30.3183,26.6392C 30.0249,26.6712 29.786,26.653 29.5799,26.6677C 29.5086,26.6728 29.4491,26.7582 29.4379,26.8288C 29.0258,29.4298 29.0682,31.0477 29.4095,32.2321C 29.4375,32.3292 29.5461,32.4074 29.6462,32.4217C 29.8783,32.455 30.1265,32.4915 30.3657,32.5071C 30.4727,32.514 30.6029,32.3963 30.6024,32.289C 30.593,30.5092 30.5627,28.7186 30.5929,26.9142 Z "/>
	<path fill="#A3A3A3" fill-opacity="1" fill-rule="evenodd" stroke-width="0.2" stroke-linejoin="miter" d="M 6.85544,30.2172C 6.99905,29.9911 7.1802,29.8004 7.3097,29.4601C 7.37551,29.2871 7.30777,29.0769 8.10466,29.0058C 9.96107,28.8404 11.8014,28.7406 13.6694,28.6652C 15.0448,28.8292 16.4202,28.9932 17.7956,29.1573L 19.9912,29.4223L 20.1427,29.763L 21.2405,30.0658L 21.9219,31.3529L 15.9218,31.9964L 14.4644,31.9775L 6.70402,30.5201L 6.85544,30.2172 Z "/>
	<path fill="none" fill-rule="evenodd" stroke-width="0.288005" stroke-linejoin="miter" stroke="#A3A3A3" stroke-opacity="1" d="M 6.85544,30.2172C 6.99905,29.9911 7.1802,29.8004 7.3097,29.4601C 7.37551,29.2871 7.30777,29.0769 8.10466,29.0058C 9.96107,28.8404 11.8014,28.7406 13.6694,28.6652C 15.0448,28.8292 16.4202,28.9932 17.7956,29.1573L 19.9912,29.4223L 20.1427,29.763L 21.2405,30.0658L 21.9219,31.3529L 15.9218,31.9964L 14.4644,31.9775L 6.70402,30.5201L 6.85544,30.2172 Z "/>
	<path fill="#000000" fill-opacity="1" fill-rule="evenodd" stroke-width="0.2" stroke-linejoin="miter" d="M 6.85544,30.2172C 6.99905,29.9911 7.1802,29.8004 7.3097,29.4601C 7.34354,29.3712 7.34205,29.2725 7.44095,29.1878L 13.8208,30.1415L 14.048,29.6872L 14.7104,29.763L 15.4486,29.7819L 19.9912,29.4223L 20.1427,29.763L 21.2405,30.0658L 21.9219,31.3529L 15.9218,31.9964L 14.4644,31.9775L 6.70402,30.5201L 6.85544,30.2172 Z "/>
	<path fill="#F4AE1B" fill-opacity="1" fill-rule="evenodd" stroke-width="0.2" stroke-linejoin="miter" d="M 8.33179,39.6432C 7.23399,39.252 6.13618,38.8608 5.03838,38.4697C 4.60902,38.0757 4.2051,37.6658 3.97843,37.1447C 4.01629,35.252 4.05414,33.3592 4.092,31.4664C 4.19323,31.2179 4.29967,30.9699 4.53238,30.7344C 4.61413,30.9495 4.84394,31.1682 5.14893,31.3495C 5.049,31.4895 4.94907,31.6294 4.8491,31.7693C 8.05376,32.6226 11.3732,33.1883 14.7294,33.6621L 14.5022,40.842L 13.8587,40.8546L 8.33179,39.6432 Z "/>
	<path fill="#000000" fill-opacity="1" fill-rule="evenodd" stroke-width="0.2" stroke-linejoin="miter" d="M 27.3541,26.9617C 27.3893,26.7245 27.1734,26.4189 26.9377,26.3749C 26.0538,26.2098 25.1365,26.1279 24.2689,26.0721C 24.0641,26.0589 23.8808,26.3077 23.8336,26.5074C 23.5887,27.5415 23.4452,28.606 23.4172,29.6683C 23.4125,29.8437 23.5663,30.0539 23.7389,30.0847C 24.5782,30.2348 25.4837,30.4183 26.4077,30.5201C 26.6096,30.5423 26.8858,30.3631 26.8998,30.1604C 26.9722,29.1197 27.1942,28.0386 27.3541,26.9617 Z "/>
	<path fill="#D3A61B" fill-opacity="1" fill-rule="evenodd" stroke-width="0.2" stroke-linejoin="miter" d="M 27.2694,27.0684C 27.3024,26.846 27.1,26.5595 26.879,26.5183C 26.0501,26.3635 25.19,26.2867 24.3765,26.2343C 24.1844,26.2219 24.0126,26.4553 23.9682,26.6425C 23.7386,27.6122 23.6041,28.6103 23.5778,29.6064C 23.5735,29.7709 23.7176,29.968 23.8795,29.9969C 24.6665,30.1377 25.5156,30.3097 26.382,30.4051C 26.5713,30.426 26.8303,30.2579 26.8435,30.0679C 26.9113,29.092 27.1194,28.0783 27.2694,27.0684 Z "/>
	<path fill="#D3A61B" fill-opacity="1" fill-rule="evenodd" stroke-width="0.2" stroke-linejoin="miter" d="M 33.4876,32.667C 33.0026,32.7264 32.5205,32.776 32.0414,32.8104C 31.9587,32.8163 31.8925,32.918 31.8804,33C 31.8542,33.1782 31.8465,33.3828 31.871,33.5877C 31.8808,33.6697 31.9588,33.7648 32.0414,33.7678C 32.5326,33.7859 33.0082,33.8368 33.4715,33.8994L 33.4877,32.6671M 32.3666,26.4959L 33.1299,31.5784C 32.8326,31.623 32.535,31.6734 32.2374,31.7314C 32.0674,31.7646 31.8052,31.6207 31.8021,31.4475C 31.7753,29.9532 31.8492,28.4412 31.7643,26.9427C 31.7536,26.7549 31.9359,26.5159 32.1239,26.5074C 32.2044,26.5038 32.2854,26.4999 32.3666,26.4959 Z M 30.5929,26.9142C 30.595,26.7847 30.447,26.6252 30.3183,26.6392C 30.2814,26.6433 30.2453,26.6466 30.2101,26.6492L 29.7011,30.2551L 29.1505,29.5466C 29.1096,30.6716 29.2067,31.5284 29.4095,32.2321C 29.4375,32.3292 29.5461,32.4074 29.6462,32.4217C 29.8783,32.455 30.1265,32.4915 30.3657,32.5071C 30.4727,32.514 30.6029,32.3963 30.6024,32.289C 30.593,30.5092 30.5627,28.7186 30.5929,26.9142 Z "/>
	<path fill="#FEFEFE" fill-opacity="1" fill-rule="evenodd" stroke-width="0.2" stroke-linejoin="miter" d="M 25.4608,26.618C 25.3345,26.5896 25.2083,26.5611 25.0821,26.5327C 24.9542,26.8125 24.8647,27.0838 24.798,27.3501L 25.2706,27.4336C 25.3165,27.1692 25.3783,26.8981 25.4608,26.618 Z M 24.7691,27.4706C 24.6932,27.8044 24.65,28.1309 24.6088,28.457C 24.7918,28.4823 24.9748,28.5076 25.1578,28.5328C 25.1702,28.2163 25.1977,27.8932 25.2499,27.5595M 24.9306,26.5042C 24.8044,26.4758 24.6781,26.4474 24.5519,26.4189C 24.4245,26.6979 24.3125,26.9748 24.2192,27.2478L 24.6709,27.3276C 24.7418,27.0464 24.8305,26.7666 24.9306,26.5042 Z M 24.1813,27.3619C 24.0687,27.71 23.9878,28.0512 23.9461,28.3812C 24.1291,28.4065 24.3121,28.4317 24.4952,28.457C 24.5074,28.1422 24.5604,27.7953 24.6418,27.4471L 24.1813,27.3619 Z "/>
	<path fill="#424242" fill-opacity="1" fill-rule="evenodd" stroke-width="0.2" stroke-linejoin="miter" d="M 36.1224,37.2482L 40.2439,37.7882L 41.4883,38.6541L 42.1839,39.9365L 42.113,41.1478L 41.2943,42.4585L 40.8117,42.8185L 41.1145,42.3309L 41.2849,41.2521L 41.1382,40.3629L 40.6035,39.4161L 39.5625,38.64L 33.536,37.7021L 33.536,37.7021L 36.1224,37.2482 Z "/>
	<path fill="#424242" fill-opacity="1" fill-rule="evenodd" stroke-width="0.2" stroke-linejoin="miter" d="M 32.8895,42.8988C 31.7398,42.8988 30.8074,43.8311 30.8074,44.9808C 30.8074,46.1305 31.7398,47.0629 32.8895,47.0629C 34.0392,47.0629 34.9715,46.1305 34.9715,44.9808C 34.9715,43.8311 34.0392,42.8988 32.8895,42.8988 Z "/>
	<path fill="#424242" fill-opacity="1" fill-rule="evenodd" stroke-width="0.2" stroke-linejoin="miter" d="M 8.2266,41.0253C 7.16046,41.0253 6.29589,41.8899 6.29589,42.956C 6.29589,44.0222 7.16046,44.8867 8.2266,44.8867C 9.29275,44.8867 10.1573,44.0222 10.1573,42.956C 10.1573,41.8899 9.29275,41.0253 8.2266,41.0253 Z "/>
	<path fill="#424242" fill-opacity="1" fill-rule="evenodd" stroke-width="0.2" stroke-linejoin="miter" d="M 32.6578,44.4044L 8.279,42.0953L 7.48404,44.3287L 32.5253,46.9029L 32.6578,44.4044 Z "/>
	<g>
		<path fill="#FCB41D" fill-opacity="1" stroke-width="0.2" stroke-linejoin="round" d="M 59.26,2.76335L 64.8791,2.76335C 66.5841,2.76335 67.9057,2.90696 68.8437,3.19418C 69.7818,3.4814 70.5701,4.12842 71.2087,5.13522C 71.8473,6.14203 72.1666,7.39099 72.1666,8.8821C 72.1666,10.3121 71.913,11.4954 71.4058,12.4319C 70.8986,13.3684 70.1958,14.0445 69.2975,14.46C 68.3991,14.8756 67.018,15.0833 65.1541,15.0833L 63.66,15.0833L 63.66,22.4167L 59.26,22.4167L 59.26,2.76335 Z M 63.66,5.99002L 63.66,11.8567L 64.9891,11.8567C 66.1625,11.8567 66.9187,11.5809 67.2579,11.0294C 67.5971,10.4779 67.7666,9.76057 67.7666,8.87752C 67.7666,8.13502 67.6353,7.53384 67.3725,7.07397C 67.1097,6.61412 66.8041,6.31849 66.4558,6.1871C 66.1075,6.05571 65.6186,5.99002 64.9891,5.99002L 63.66,5.99002 Z "/>
		<path fill="#FCB41D" fill-opacity="1" stroke-width="0.2" stroke-linejoin="round" d="M 74.22,2.76335L 86.2466,2.76335L 86.2466,5.99002L 78.62,5.99002L 78.62,10.6833L 84.4866,10.6833L 84.4866,13.91L 78.62,13.91L 78.62,18.8967L 86.2466,18.8967L 86.2466,22.4167L 74.22,22.4167L 74.22,2.76335 Z "/>
		<path fill="#FCB41D" fill-opacity="1" stroke-width="0.2" stroke-linejoin="round" d="M 88.3,2.76335L 94.6479,2.76335L 97.4345,14.9L 100.565,2.76335L 106.78,2.76335L 106.78,22.4167L 102.673,22.4167L 102.673,5.95793L 98.6446,22.4167L 95.5004,22.4167L 91.82,5.95793L 91.82,22.4167L 88.3,22.4167L 88.3,2.76335 Z "/>
		<path fill="#FCB41D" fill-opacity="1" stroke-width="0.2" stroke-linejoin="round" d="M 119.98,15.3767L 124.087,15.6196C 123.94,17.7127 123.257,19.4177 122.038,20.7346C 120.819,22.0515 119.208,22.71 117.207,22.71C 114.766,22.71 112.906,21.8132 111.629,20.0196C 110.352,18.226 109.713,15.7571 109.713,12.6129C 109.713,9.43821 110.35,6.95404 111.625,5.16043C 112.899,3.36682 114.792,2.47002 117.303,2.47002C 121.456,2.47002 123.717,5.01377 124.087,10.1013L 119.98,10.39C 119.87,7.45668 118.929,5.99002 117.157,5.99002C 116.228,5.99002 115.488,6.45905 114.938,7.3971C 114.388,8.33516 114.113,10.1547 114.113,12.8559C 114.113,15.2697 114.365,16.9289 114.867,17.8333C 115.37,18.7378 116.124,19.19 117.129,19.19C 118.742,19.19 119.693,17.9189 119.98,15.3767 Z "/>
		<path fill="#FCB41D" fill-opacity="1" stroke-width="0.2" stroke-linejoin="round" d="M 126.433,2.76335L 139.927,2.76335L 139.927,22.4167L 135.527,22.4167L 135.527,6.28335L 130.833,6.28335L 130.833,22.4167L 126.433,22.4167L 126.433,2.76335 Z "/>
		<path fill="#FCB41D" fill-opacity="1" stroke-width="0.2" stroke-linejoin="round" d="M 143.447,2.76335L 155.473,2.76335L 155.473,5.99002L 147.847,5.99002L 147.847,10.6833L 153.713,10.6833L 153.713,13.91L 147.847,13.91L 147.847,18.8967L 155.473,18.8967L 155.473,22.4167L 143.447,22.4167L 143.447,2.76335 Z "/>
		<path fill="#FCB41D" fill-opacity="1" stroke-width="0.2" stroke-linejoin="round" d="M 171.02,18.8967L 173.953,18.8967L 173.953,26.5233L 170.433,26.5233L 170.048,22.4167L 157.527,22.4167L 157.527,2.76335L 161.927,2.76335L 161.927,18.8967L 166.62,18.8967L 166.62,2.76335L 171.02,2.76335L 171.02,18.8967 Z "/>
		<path fill="#FCB41D" fill-opacity="1" stroke-width="0.2" stroke-linejoin="round" d="M 57.2066,29.3026L 69.2333,29.3026L 69.2333,32.8226L 65.42,32.8226L 65.42,48.9559L 61.02,48.9559L 61.02,32.8226L 57.2066,32.8226L 57.2066,29.3026 Z "/>
		<path fill="#FCB41D" fill-opacity="1" stroke-width="0.2" stroke-linejoin="round" d="M 70.7,29.3026L 82.7266,29.3026L 82.7266,32.5292L 75.1,32.5292L 75.1,37.2226L 80.9666,37.2226L 80.9666,40.4492L 75.1,40.4492L 75.1,45.4359L 82.7266,45.4359L 82.7266,48.9559L 70.7,48.9559L 70.7,29.3026 Z "/>
		<path fill="#FCB41D" fill-opacity="1" stroke-width="0.2" stroke-linejoin="round" d="M 83.02,29.3026L 88.0158,29.3026L 90.4496,34.5367L 93.117,29.3026L 97.1,29.3026L 92.315,38.0751L 97.6866,48.9559L 92.7733,48.9559L 89.8216,42.4705L 86.4162,48.9559L 82.4333,48.9559L 87.9745,39.0559L 83.02,29.3026 Z "/>
		<path fill="#FCB41D" fill-opacity="1" stroke-width="0.2" stroke-linejoin="round" d="M 98.86,29.3026L 103.26,29.3026L 103.26,37.2226L 107.953,37.2226L 107.953,29.3026L 112.353,29.3026L 112.353,48.9559L 107.953,48.9559L 107.953,40.7426L 103.26,40.7426L 103.26,48.9559L 98.86,48.9559L 98.86,29.3026 Z "/>
		<path fill="#FCB41D" fill-opacity="1" stroke-width="0.2" stroke-linejoin="round" d="M 120.273,46.9392L 120.273,48.9559L 115.873,48.9559L 115.873,29.3026L 120.273,29.3026L 120.273,40.3301L 120.915,39.1338L 125.26,31.4751L 125.26,29.3026L 129.66,29.3026L 129.66,48.9559L 125.26,48.9559L 125.26,38.7763L 125.278,37.9971L 124.595,39.2942L 120.273,46.9392 Z "/>
		<path fill="#FCB41D" fill-opacity="1" stroke-width="0.2" stroke-linejoin="round" d="M 133.18,29.3026L 137.58,29.3026L 137.58,37.6488L 142.617,29.3026L 146.967,29.3026L 141.893,36.5305L 147.26,48.9559L 142.782,48.9559L 139.299,39.8534L 137.58,42.2734L 137.58,48.9559L 133.18,48.9559L 133.18,29.3026 Z "/>
		<path fill="#FCB41D" fill-opacity="1" stroke-width="0.2" stroke-linejoin="round" d="M 152.274,29.3026L 156.615,29.3026L 162.22,48.9559L 157.646,48.9559L 156.651,44.8492L 151.032,44.8492L 150.056,48.9559L 146.38,48.9559L 152.274,29.3026 Z M 155.881,41.6226L 153.805,33.258L 151.82,41.6226L 155.881,41.6226 Z "/>
	</g>
</svg>
